{
  "accessors": [
    {
      "bufferView": 2,
      "componentType": 5126,
      "count": 3969,
      "max": [
        0.2210197001695633,
        0.11756664514541626,
        0.04853082448244095
      ],
      "min": [
        -0.35385996103286743,
        -0.11516720056533813,
        -0.05626218765974045
      ],
      "type": "VEC3"
    },
    {
      "bufferView": 2,
      "byteOffset": 47628,
      "componentType": 5126,
      "count": 3969,
      "max": [
        1.0,
        0.9999492764472961,
        0.9999884366989136
      ],
      "min": [
        -1.0,
        -0.999976634979248,
        -0.9999987483024597
      ],
      "type": "VEC3"
    },
    {
      "bufferView": 3,
      "componentType": 5126,
      "count": 3969,
      "max": [
        0.9999381303787231,
        1.0,
        0.9996810555458069,
        1.0
      ],
      "min": [
        -0.9999327659606934,
        -1.0,
        -0.9996039271354675,
        -1.0
      ],
      "type": "VEC4"
    },
    {
      "bufferView": 1,
      "componentType": 5126,
      "count": 3969,
      "max": [
        0.9958078265190125,
        0.9940757155418396
      ],
      "min": [
        0.003903470002114773,
        0.0039013423956930637
      ],
      "type": "VEC2"
    },
    {
      "bufferView": 0,
      "componentType": 5125,
      "count": 13413,
      "type": "SCALAR"
    },
    {
      "bufferView": 2,
      "byteOffset": 95256,
      "componentType": 5126,
      "count": 403,
      "max": [
        0.3071424961090088,
        0.010463005863130093,
        0.017192382365465164
      ],
      "min": [
        -0.31680920720100403,
        -0.010092843323946,
        -0.017970629036426544
      ],
      "type": "VEC3"
    },
    {
      "bufferView": 2,
      "byteOffset": 100092,
      "componentType": 5126,
      "count": 403,
      "max": [
        0.9999902844429016,
        0.9999960660934448,
        0.999916672706604
      ],
      "min": [
        -0.9998520612716675,
        -0.9999918341636658,
        -0.999916672706604
      ],
      "type": "VEC3"
    },
    {
      "bufferView": 3,
      "byteOffset": 63504,
      "componentType": 5126,
      "count": 403,
      "max": [
        0.9999976754188538,
        0.9784626364707947,
        0.9999985098838806,
        1.0
      ],
      "min": [
        -0.9999227523803711,
        -0.9999139308929443,
        -0.9999881982803345,
        1.0
      ],
      "type": "VEC4"
    },
    {
      "bufferView": 1,
      "byteOffset": 31752,
      "componentType": 5126,
      "count": 403,
      "max": [
        0.9899806976318359,
        0.9823307991027832
      ],
      "min": [
        0.007896125316619873,
        0.01753711700439453
      ],
      "type": "VEC2"
    },
    {
      "bufferView": 0,
      "byteOffset": 53652,
      "componentType": 5125,
      "count": 1518,
      "type": "SCALAR"
    }
  ],
  "asset": {
    "extras": {
      "author": "demmerize (https://sketchfab.com/dmitrymyakush)",
      "license": "CC-BY-4.0 (http://creativecommons.org/licenses/by/4.0/)",
      "source": "https://sketchfab.com/3d-models/stylized-violin-2213cfb2fc9c4c29a2c73b01b59c177c",
      "title": "stylized violin"
    },
    "generator": "Sketchfab-15.8.0",
    "version": "2.0"
  },
  "bufferViews": [
    {
      "buffer": 0,
      "byteLength": 59724,
      "name": "floatBufferViews",
      "target": 34963
    },
    {
      "buffer": 0,
      "byteLength": 34976,
      "byteOffset": 59724,
      "byteStride": 8,
      "name": "floatBufferViews",
      "target": 34962
    },
    {
      "buffer": 0,
      "byteLength": 104928,
      "byteOffset": 94700,
      "byteStride": 12,
      "name": "floatBufferViews",
      "target": 34962
    },
    {
      "buffer": 0,
      "byteLength": 69952,
      "byteOffset": 199628,
      "byteStride": 16,
      "name": "floatBufferViews",
      "target": 34962
    }
  ],
  "buffers": [
    {
      "byteLength": 269580,
      "uri": "scene.bin"
    }
  ],
  "images": [
    {
      "uri": "textures/Material_baseColor.png"
    },
    {
      "uri": "textures/Material_metallicRoughness.png"
    },
    {
      "uri": "textures/Material_normal.png"
    },
    {
      "uri": "textures/Material.023_baseColor.png"
    },
    {
      "uri": "textures/Material.023_metallicRoughness.png"
    },
    {
      "uri": "textures/Material.023_normal.png"
    }
  ],
  "materials": [
    {
      "doubleSided": true,
      "name": "Material",
      "normalTexture": {
        "index": 2
      },
      "occlusionTexture": {
        "index": 1
      },
      "pbrMetallicRoughness": {
        "baseColorTexture": {
          "index": 0
        },
        "metallicRoughnessTexture": {
          "index": 1
        }
      }
    },
    {
      "doubleSided": true,
      "name": "Material.023",
      "normalTexture": {
        "index": 5
      },
      "occlusionTexture": {
        "index": 4
      },
      "pbrMetallicRoughness": {
        "baseColorTexture": {
          "index": 3
        },
        "metallicRoughnessTexture": {
          "index": 4
        }
      }
    }
  ],
  "meshes": [
    {
      "name": "Violin_texturing_Material_0",
      "primitives": [
        {
          "attributes": {
            "NORMAL": 1,
            "POSITION": 0,
            "TANGENT": 2,
            "TEXCOORD_0": 3
          },
          "indices": 4,
          "material": 0,
          "mode": 4
        }
      ]
    },
    {
      "name": "Smichoktexturing_Material.023_0",
      "primitives": [
        {
          "attributes": {
            "NORMAL": 6,
            "POSITION": 5,
            "TANGENT": 7,
            "TEXCOORD_0": 8
          },
          "indices": 9,
          "material": 1,
          "mode": 4
        }
      ]
    }
  ],
  "nodes": [
    {
      "children": [
        1
      ],
      "matrix": [
        1.0,
        0.0,
        0.0,
        0.0,
        0.0,
        2.220446049250313e-16,
        -1.0,
        0.0,
        0.0,
        1.0,
        2.220446049250313e-16,
        0.0,
        0.0,
        0.0,
        0.0,
        1.0
      ],
      "name": "Sketchfab_model"
    },
    {
      "children": [
        2
      ],
      "matrix": [
        0.009999999776482582,
        0.0,
        0.0,
        0.0,
        0.0,
        0.0,
        0.009999999776482582,
        0.0,
        0.0,
        -0.009999999776482582,
        0.0,
        0.0,
        0.0,
        0.0,
        0.0,
        1.0
      ],
      "name": "f7b122ec9acc41e383bb57a289c69811.fbx"
    },
    {
      "children": [
        3,
        5
      ],
      "name": "RootNode"
    },
    {
      "children": [
        4
      ],
      "matrix": [
        10.387238054907913,
        -99.42448475390403,
        -2.6221348425536215,
        0.0,
        -15.480487120628977,
        0.9880869505426177,
        -98.78955752916077,
        0.0,
        98.24693252752621,
        10.667427388251372,
        -15.288761946217356,
        0.0,
        -0.1693025380373001,
        0.0,
        5.794979607287587e-09,
        1.0
      ],
      "name": "Violin_texturing"
    },
    {
      "mesh": 0,
      "name": "Violin_texturing_Material_0"
    },
    {
      "children": [
        6
      ],
      "matrix": [
        12.730265699693684,
        83.12508804974274,
        54.11243382348943,
        0.0,
        98.59678389940103,
        -4.66574407456195,
        -16.02816225173435,
        0.0,
        -10.798677133662641,
        55.393551307267984,
        -82.55263134641612,
        0.0,
        -7.769200801849365,
        3.7418200969696045,
        0.616155207157135,
        1.0
      ],
      "name": "Smichoktexturing"
    },
    {
      "mesh": 1,
      "name": "Smichoktexturing_Material.023_0"
    }
  ],
  "samplers": [
    {
      "magFilter": 9729,
      "minFilter": 9987,
      "wrapS": 10497,
      "wrapT": 10497
    }
  ],
  "scene": 0,
  "scenes": [
    {
      "name": "Sketchfab_Scene",
      "nodes": [
        0
      ]
    }
  ],
  "textures": [
    {
      "sampler": 0,
      "source": 0
    },
    {
      "sampler": 0,
      "source": 1
    },
    {
      "sampler": 0,
      "source": 2
    },
    {
      "sampler": 0,
      "source": 3
    },
    {
      "sampler": 0,
      "source": 4
    },
    {
      "sampler": 0,
      "source": 5
    }
  ]
}
